<svg xmlns="http://www.w3.org/2000/svg" viewBox="0 0 64 64" role="img" aria-label="Pattern of One seed">
  <rect width="64" height="64" fill="#080907"/>
  <g fill="none" stroke="#e6c69b" stroke-linecap="round">
    <path d="M14 34c2-13 10-22 21-21 11 1 18 11 15 22-3 10-13 17-24 14-9-2-14-7-12-15Z" opacity=".35"/>
    <path d="M19 35c1-9 7-16 15-15 8 0 13 7 12 15-2 8-9 13-17 11-7-1-11-5-10-11Z" opacity=".62"/>
    <path d="M25 34c1-5 4-9 9-8 5 0 8 4 7 9-1 4-5 7-10 6-4-1-7-3-6-7Z"/>
  </g>
  <circle cx="34" cy="31" r="2.4" fill="#f2eee4"/>
</svg>
